# xmcd
#
# Track frame offsets:
#	150
#	18103
#	32547
#	50549
#	73214
#	89234
#	105600
#	122998
#	139362
#	154117
#	171866
#	187936
#	201470
#	216919
#	232239
#	260019
#	288606
#	304405
#
# Disc length: 4307 seconds
#
# Revision: 1
# Processed by: cddbd v1.5.2PL0 Copyright (c) Steve Scherf et al.
# Submitted via: audiograbber 1.83.01
#
DISCID=2010d112
DTITLE=Various Artist - TMStudios PrimeCuts HP200850 121208
DYEAR=2008
DGENRE=Top 40
TTITLE0=Katy Perry - Thinking Of You
TTITLE1=Britney Spears - Circus [Main]
TTITLE2=Jay-Z f Santogold - Brooklyn (Go Hard)
TTITLE3=TI f Justin Timberlake - Dead And Gone
TTITLE4=Savage f Baby Bash - Wild Out (Chooohooo)
TTITLE5=Jennifer Hudson - If This Isn't Love [Album Version]
TTITLE6=Brutha f Fabolous - I Can't Hear The Music [Clean]
TTITLE7=Bubba Sparxxx f Ray J - She Got Me Like (Ahh S***!) [Super Clean]
TTITLE8=Jimmy Wayne - I Will [Single Edit]
TTITLE9=Jessica Andrews - Everything
TTITLE10=3 Doors Down - Citizen-Soldier [Radio Edit]
TTITLE11=Beck - Youthless [Album Version]
TTITLE12=Blue October - Dirt Room
TTITLE13=Jordin Sparks - One Step At A Time [Jason Nevins Remix Radio Eidt]
TTITLE14=Donna Summer - Fame (The Game) [Dan Chase Full Vocal Mix]
TTITLE15=AC-DC - Rock 'N Roll Train [Manchester England Mix]
TTITLE16=Sanctus Real - Turn On The Lights [Album Version]
TTITLE17=Francesca Battistelli - You're Here
EXTD=
EXTT0=
EXTT1=
EXTT2=
EXTT3=
EXTT4=
EXTT5=
EXTT6=
EXTT7=
EXTT8=
EXTT9=
EXTT10=
EXTT11=
EXTT12=
EXTT13=
EXTT14=
EXTT15=
EXTT16=
EXTT17=
PLAYORDER=
